<?xml version='1.0' encoding='UTF-8' standalone='no' ?><svg xmlns="http://www.w3.org/2000/svg" xmlns:scribmaster="http://scribmaster.com/scribmaster" xmlns:sodipodi="http://sodipodi.sourceforge.net/DTD/sodipodi-0.dtd" xmlns:inkscape="http://www.inkscape.org/namespaces/inkscape" xmlns:xlink="http://www.w3.org/1999/xlink" version="1.1" width="1080" height="1677"><sodipodi:namedview id="ScribMaster" /><filter id="blur"><feGaussianBlur stdDeviation="5.0" /></filter><defs /><g id="1438680437645" transform="matrix(1,0,0,1,0,0)" style="opacity:1.0"><g id="1438680156030" inkscape:groupmode="layer" transform="matrix(1,0,0,1,0,0)" style="opacity:1.0"><path transform="matrix(1,0,0,1,0,0)" d="M 128.1 252.0 C 170.0675 225.34021 172.68317 229.46758 151.64941 242.79747 C 147.52205 245.41313 142.29073 237.1584 146.41809 234.54274 C 167.45184 221.21284 170.0675 225.34021 128.1 252.0 C 128.1 252.0 128.1 252.0 128.1 252.0 M 151.64941 242.79747 C 130.61566 256.12735 125.37989 247.87546 146.36363 234.54556 C 150.48817 231.92545 155.72841 240.17453 151.60387 242.79465 C 130.62012 256.12454 125.38433 247.87263 146.41809 234.54274 C 150.54546 231.92708 155.77678 240.18181 151.64941 242.79747 M 146.36363 234.54556 C 167.34738 221.21567 164.98625 216.22212 191.96887 201.4814 C 201.08696 196.50015 211.04945 214.73633 201.93137 219.71758 C 174.94875 234.4583 172.58762 229.46475 151.60387 242.79465 C 147.47932 245.41476 142.23909 237.16568 146.36363 234.54556 M 191.96887 201.4814 C 218.95149 186.74068 218.90717 185.97821 246.1105 172.1417 C 255.99106 167.11612 266.0422 186.87723 256.16165 191.9028 C 228.95831 205.73932 228.91399 204.97685 201.93137 219.71758 C 192.81328 224.69882 182.85078 206.46265 191.96887 201.4814 M 246.1105 172.1417 C 273.31384 158.30519 273.38254 158.17247 302.82455 143.59778 C 312.83783 138.6409 322.7516 158.66745 312.7383 163.62433 C 283.2963 178.19902 283.365 178.0663 256.16165 191.9028 C 246.2811 196.92838 236.22995 177.16727 246.1105 172.1417 M 302.82455 143.59778 C 332.26657 129.02309 332.5338 128.88295 361.04926 115.71231 C 371.20267 111.022675 380.58194 131.32948 370.42853 136.01912 C 341.9131 149.18977 342.18033 149.04964 312.7383 163.62433 C 302.72504 168.5812 292.81128 148.55466 302.82455 143.59778 M 361.04926 115.71231 C 389.56467 102.54166 390.48102 102.16521 422.0341 90.85846 C 432.56396 87.08518 440.11053 108.144905 429.58066 111.91818 C 398.0276 123.22493 398.94394 122.84848 370.42853 136.01912 C 360.27512 140.70876 350.89584 120.40195 361.04926 115.71231 M 422.0341 90.85846 C 453.58713 79.55171 454.13885 79.36984 483.9778 70.39578 C 494.68954 67.17423 501.13266 88.597694 490.42093 91.819244 C 460.58197 100.793304 461.1337 100.611435 429.58066 111.91818 C 419.05078 115.69146 411.5042 94.63174 422.0341 90.85846 M 483.9778 70.39578 C 513.8168 61.42172 514.88 61.15795 536.36536 56.932823 C 547.3409 54.774475 551.65753 76.72548 540.682 78.88383 C 519.19666 83.108955 520.2599 82.845184 490.42093 91.819244 C 479.7092 95.040794 473.26608 73.61733 483.9778 70.39578 M 536.36536 56.932823 C 557.85065 52.707687 559.0827 52.53589 581.2462 50.694294 C 592.3935 49.76805 594.24603 72.062645 583.09875 72.98889 C 560.93524 74.83049 562.1673 74.65869 540.682 78.88383 C 529.7065 81.042175 525.38983 59.09117 536.36536 56.932823 M 581.2462 50.694294 C 603.4097 48.8527 605.0651 48.838074 622.3074 49.96439 C 633.4693 50.69352 632.01105 73.01737 620.8491 72.28824 C 603.6069 71.16193 605.26227 71.1473 583.09875 72.98889 C 571.9515 73.91514 570.09894 51.620537 581.2462 50.694294 M 622.3074 49.96439 C 639.5497 51.090706 641.24493 51.3328 656.6786 54.759277 C 667.59845 57.183624 662.7497 79.023285 651.82983 76.59894 C 636.3962 73.17246 638.09143 73.41456 620.8491 72.28824 C 609.6872 71.559105 611.14545 49.23526 622.3074 49.96439 M 656.6786 54.759277 C 672.11224 58.18576 673.0889 58.44947 694.7858 65.3744 C 705.44196 68.775475 698.63983 90.087715 687.9837 86.68664 C 666.2868 79.76171 667.2635 80.02542 651.82983 76.59894 C 640.91 74.17459 645.7587 52.33493 656.6786 54.759277 M 694.7858 65.3744 C 716.4827 72.299324 717.51215 72.68456 736.73663 80.9773 C 747.0075 85.40778 738.14655 105.94955 727.8757 101.519066 C 708.6512 93.226326 709.6806 93.611565 687.9837 86.68664 C 677.3276 83.28556 684.1297 61.97332 694.7858 65.3744 M 736.73663 80.9773 C 755.96106 89.27004 758.54095 90.82457 770.1544 100.16504 C 778.8708 107.17542 764.85004 124.60813 756.13367 117.59775 C 744.5202 108.25728 747.1001 109.811806 727.8757 101.519066 C 717.6048 97.088585 726.46576 76.54682 736.73663 80.9773 M 770.1544 100.16504 C 781.7678 109.50551 784.2933 112.37481 793.59485 127.54455 C 799.4419 137.08038 780.37024 148.7745 774.5232 139.23866 C 765.2216 124.06892 767.7471 126.93822 756.13367 117.59775 C 747.4173 110.587364 761.43805 93.154655 770.1544 100.16504 M 793.59485 127.54455 C 802.8964 142.71428 803.9091 144.83995 809.8565 161.69824 C 813.5779 172.24678 792.48083 179.68956 788.75946 169.14102 C 782.8121 152.28273 783.82477 154.4084 774.5232 139.23866 C 768.67615 129.70282 787.7478 118.00871 793.59485 127.54455 M 809.8565 161.69824 C 815.80396 178.55653 816.3199 180.63528 818.19214 193.24632 C 819.8348 204.31076 797.7059 207.59604 796.06323 196.5316 C 794.191 183.92056 794.7069 185.99931 788.75946 169.14102 C 785.0381 158.59248 806.13513 151.1497 809.8565 161.69824 M 818.19214 193.24632 C 820.06445 205.85736 820.08386 209.00598 818.6344 219.67383 C 817.1284 230.75769 794.9607 227.74573 796.4667 216.66187 C 797.91614 205.99402 797.93555 209.14264 796.06323 196.5316 C 794.4206 185.46716 816.5495 182.18188 818.19214 193.24632 M 818.6344 219.67383 C 817.1849 230.34166 816.42737 233.13527 812.30743 243.03015 C 808.0079 253.3565 787.35516 244.75732 791.6547 234.43097 C 795.77466 224.53609 795.01715 227.3297 796.4667 216.66187 C 797.97266 205.578 820.1404 208.58997 818.6344 219.67383 M 812.30743 243.03015 C 808.1875 252.92505 806.8324 255.30655 800.6544 263.60223 C 793.9733 272.5735 776.0308 259.2113 782.7119 250.24005 C 788.8899 241.94437 787.5348 244.32587 791.6547 234.43097 C 795.9543 224.10461 816.607 232.7038 812.30743 243.03015 M 800.6544 263.60223 C 794.47644 271.89795 793.1281 273.4029 785.2831 280.70825 C 777.09705 288.33118 761.8512 271.9591 770.03723 264.33618 C 777.88226 257.03082 776.53394 258.53577 782.7119 250.24005 C 789.393 241.2688 807.3355 254.63098 800.6544 263.60223 M 785.2831 280.70825 C 777.43805 288.0136 775.9991 289.14844 766.62836 295.36548 C 757.3075 301.54944 744.9396 282.9077 754.26044 276.72375 C 763.63116 270.5067 762.1922 271.64154 770.03723 264.33618 C 778.22327 256.71326 793.4691 273.08533 785.2831 280.70825 M 766.62836 295.36548 C 757.2576 301.58252 755.3962 302.57846 743.8657 307.40945 C 733.54895 311.73196 724.90393 291.09836 735.2207 286.77585 C 746.75116 281.94485 744.8897 282.9408 754.26044 276.72375 C 763.5813 270.5398 775.9492 289.18152 766.62836 295.36548 M 743.8657 307.40945 C 732.3352 312.24048 730.4597 312.83844 717.49207 315.7457 C 706.5773 318.19272 701.6832 296.3632 712.598 293.91617 C 725.5657 291.0089 723.6902 291.60687 735.2207 286.77585 C 745.5375 282.45334 754.1825 303.08694 743.8657 307.40945 M 717.49207 315.7457 C 704.5245 318.65292 702.34045 318.92078 689.9955 319.21112 C 678.81287 319.47412 678.28687 297.1089 689.4695 296.8459 C 701.81445 296.55554 699.63043 296.8234 712.598 293.91617 C 723.5128 291.46915 728.40686 313.29868 717.49207 315.7457 M 689.9955 319.21112 C 677.6505 319.50146 675.2517 319.29877 662.8525 316.88687 C 651.87256 314.75107 656.14417 292.79123 667.1241 294.92703 C 679.5233 297.33893 677.1245 297.13623 689.4695 296.8459 C 700.6521 296.5829 701.1781 318.94812 689.9955 319.21112 M 662.8525 316.88687 C 650.4533 314.47498 648.05835 313.7221 633.7319 307.37524 C 623.5048 302.84448 632.56635 282.39038 642.7934 286.92114 C 657.1199 293.268 654.7249 292.51514 667.1241 294.92703 C 678.104 297.06284 673.8324 319.02267 662.8525 316.88687 M 633.7319 307.37524 C 619.4054 301.02838 617.681 300.07462 598.77893 287.32455 C 589.5057 281.06943 602.0159 262.52286 611.2892 268.77798 C 630.1913 281.52805 628.4669 280.57428 642.7934 286.92114 C 653.02045 291.4519 643.9589 311.906 633.7319 307.37524 M 598.77893 287.32455 C 579.8768 274.57452 579.01013 273.92682 558.4985 256.99124 C 549.87286 249.86948 564.1164 232.61832 572.742 239.74008 C 593.25366 256.67566 592.387 256.02795 611.2892 268.77798 C 620.56244 275.0331 608.0522 293.57968 598.77893 287.32455 M 558.4985 256.99124 C 537.98676 240.05566 537.2715 239.4114 520.2886 222.73555 C 512.30725 214.89853 527.9813 198.93588 535.96265 206.7729 C 552.94556 223.44876 552.2303 222.8045 572.742 239.74008 C 581.3676 246.86185 567.1241 264.113 558.4985 256.99124 M 520.2886 222.73555 C 503.30576 206.0597 502.9999 205.74739 487.85715 189.66902 C 480.1881 181.52615 496.47382 166.18811 504.14285 174.33098 C 519.28564 190.40935 518.9798 190.09705 535.96265 206.7729 C 543.944 214.60992 528.2699 230.57257 520.2886 222.73555" scribmaster:penstyle="draw" style="fill:#000000;fill-opacity:1.0" /><path transform="matrix(1,0,0,1,0,0)" d="M 325.1 319.0 C 339.9404 357.35315 335.38727 359.1268 327.91708 339.95023 C 326.14343 335.3971 335.2497 331.8498 337.02335 336.40292 C 344.49353 355.5795 339.9404 357.35315 325.1 319.0 C 325.1 319.0 325.1 319.0 325.1 319.0 M 327.91708 339.95023 C 320.44687 320.77365 329.55713 317.23666 336.97733 336.41324 C 338.74066 340.97037 329.6264 344.49704 327.86307 339.9399 C 320.44287 320.76334 329.55313 317.22635 337.02335 336.40292 C 338.797 340.95605 329.69073 344.50336 327.91708 339.95023 M 336.97733 336.41324 C 344.39752 355.5898 348.6803 351.8934 355.12372 362.326 C 360.58347 371.1659 342.90366 382.0854 337.4439 373.24548 C 331.0005 362.8129 335.28326 359.1165 327.86307 339.9399 C 326.09973 335.38278 335.214 331.8561 336.97733 336.41324 M 355.12372 362.326 C 361.56714 372.75858 360.97726 370.81433 366.72275 377.21634 C 374.12674 385.46637 357.62668 400.27435 350.2227 392.02432 C 344.4772 385.6223 343.88733 383.67807 337.4439 373.24548 C 331.98416 364.40558 349.66397 353.48608 355.12372 362.326 M 366.72275 377.21634 C 372.46823 383.61835 370.7996 381.9934 377.29904 386.73102 C 386.32797 393.3124 373.1652 411.37027 364.13626 404.78888 C 357.6368 400.05127 355.96817 398.42633 350.2227 392.02432 C 342.8187 383.7743 359.31876 368.9663 366.72275 377.21634 M 377.29904 386.73102 C 383.7985 391.46863 381.40683 390.12787 388.5936 393.0316 C 398.9633 397.2213 390.58383 417.9607 380.21414 413.77097 C 373.02737 410.86725 370.6357 409.5265 364.13626 404.78888 C 355.10733 398.2075 368.2701 380.14963 377.29904 386.73102 M 388.5936 393.0316 C 395.78036 395.9353 392.2763 395.14053 399.70514 395.59677 C 410.8696 396.28244 409.49826 418.61136 398.3338 417.9257 C 390.90497 417.46945 387.4009 416.67468 380.21414 413.77097 C 369.84445 409.58124 378.2239 388.84186 388.5936 393.0316 M 399.70514 395.59677 C 407.13397 396.05304 403.24133 396.5014 410.35602 394.37222 C 421.0721 391.16525 427.48605 412.59744 416.76996 415.8044 C 409.65527 417.9336 405.76263 418.38196 398.3338 417.9257 C 387.16934 417.24002 388.54068 394.9111 399.70514 395.59677 M 410.35602 394.37222 C 417.47073 392.243 414.523 393.6189 420.47433 389.6973 C 429.81454 383.5426 442.12393 402.22302 432.78372 408.37772 C 426.8324 412.29932 423.88467 413.6752 416.76996 415.8044 C 406.05386 419.01138 399.63992 397.5792 410.35602 394.37222 M 420.47433 389.6973 C 426.4257 385.7757 423.89798 388.06354 428.43738 382.4749 C 435.48975 373.7925 452.85455 387.89725 445.8022 396.57965 C 441.2628 402.16827 438.73508 404.45612 432.78372 408.37772 C 423.4435 414.5324 411.13412 395.852 420.47433 389.6973 M 428.43738 382.4749 C 432.97678 376.8863 431.1886 380.00333 434.62888 370.84988 C 438.5642 360.3793 459.50537 368.24997 455.57004 378.72055 C 452.12976 387.874 450.34158 390.99103 445.8022 396.57965 C 438.74982 405.26205 421.385 391.15732 428.43738 382.4749 M 434.62888 370.84988 C 438.06915 361.69644 437.35428 365.55756 437.42487 354.91827 C 437.49908 343.73282 459.87 343.88126 459.79578 355.0667 C 459.7252 365.706 459.0103 369.5671 455.57004 378.72055 C 451.6347 389.19113 430.69354 381.32047 434.62888 370.84988 M 437.42487 354.91827 C 437.49545 344.279 438.48376 348.9509 433.90723 338.80066 C 429.30954 328.60352 449.70383 319.40814 454.3015 329.6053 C 458.87805 339.75552 459.86636 344.42743 459.79578 355.0667 C 459.72156 366.25217 437.35065 366.10373 437.42487 354.91827 M 433.90723 338.80066 C 429.33066 328.65042 430.25986 330.31573 422.67487 319.09152 C 416.41187 309.82358 434.94775 297.29758 441.21075 306.56552 C 448.79575 317.78973 449.72495 319.45505 454.3015 329.6053 C 458.8992 339.80243 438.5049 348.9978 433.90723 338.80066 M 422.67487 319.09152 C 415.08984 307.8673 416.09338 309.1422 407.51178 299.73352 C 399.97388 291.46912 416.5027 276.3933 424.0406 284.6577 C 432.6222 294.0664 433.62573 295.3413 441.21075 306.56552 C 447.47375 315.83347 428.93787 328.35947 422.67487 319.09152 M 407.51178 299.73352 C 398.93015 290.32483 400.66852 291.87158 390.54446 284.5989 C 381.4598 278.07288 394.51187 259.90356 403.59653 266.4296 C 413.72058 273.70227 415.45895 275.24902 424.0406 284.6577 C 431.5785 292.92212 415.04968 307.99792 407.51178 299.73352 M 390.54446 284.5989 C 380.42038 277.32623 381.75745 278.1509 370.09174 272.0422 C 360.1824 266.85324 370.56033 247.03458 380.46967 252.22356 C 392.13538 258.33224 393.47244 259.15692 403.59653 266.4296 C 412.68118 272.95563 399.62912 291.12494 390.54446 284.5989 M 370.09174 272.0422 C 358.42603 265.9335 360.50595 266.76913 349.48526 263.58032 C 338.7403 260.47128 344.95837 238.98137 355.70334 242.0904 C 366.72403 245.2792 368.80396 246.11485 380.46967 252.22356 C 390.379 257.41254 380.00107 277.23117 370.09174 272.0422 M 349.48526 263.58032 C 338.46457 260.3915 340.74152 260.80127 329.7047 259.978 C 318.55 259.1459 320.21417 236.83647 331.3689 237.66855 C 342.4057 238.49184 344.68265 238.90161 355.70334 242.0904 C 366.4483 245.19942 360.23022 266.68936 349.48526 263.58032 M 329.7047 259.978 C 318.6679 259.15472 321.76563 258.95386 309.63086 261.46375 C 298.677 263.72937 294.14575 241.82164 305.0996 239.55602 C 317.23438 237.04614 320.3321 236.84528 331.3689 237.66855 C 342.52362 238.50063 340.85944 260.8101 329.7047 259.978 M 309.63086 261.46375 C 297.49606 263.9736 301.30276 262.41373 287.69342 271.2109 C 278.29944 277.28323 266.1548 258.49527 275.54877 252.42294 C 289.1581 243.62576 292.9648 242.06589 305.0996 239.55602 C 316.05347 237.29039 320.58472 259.19812 309.63086 261.46375 M 287.69342 271.2109 C 274.0841 280.0081 276.55115 277.83902 263.5841 293.16522 C 256.3592 301.7046 239.28044 287.25476 246.50536 278.7154 C 259.4724 263.3892 261.93945 261.22012 275.54877 252.42294 C 284.94275 246.3506 297.0874 265.13858 287.69342 271.2109 M 263.5841 293.16522 C 250.61703 308.49146 252.16666 306.09692 244.67102 321.75272 C 239.84064 331.8417 219.66266 322.18094 224.49304 312.09195 C 231.98868 296.43616 233.5383 294.04163 246.50536 278.7154 C 253.73027 270.17603 270.80902 284.62585 263.5841 293.16522 M 244.67102 321.75272 C 237.17538 337.4085 238.12039 334.41425 235.47223 350.3282 C 233.63611 361.36218 211.56812 357.68994 213.40424 346.65594 C 216.0524 330.742 216.9974 327.74774 224.49304 312.09195 C 229.32343 302.00296 249.5014 311.66373 244.67102 321.75272 M 235.47223 350.3282 C 232.82407 366.2421 232.90794 363.1759 235.52739 386.8516 C 236.75746 397.96948 214.52171 400.42963 213.29164 389.31174 C 210.6722 365.63605 210.75607 362.56985 213.40424 346.65594 C 215.24036 335.62195 237.30835 339.2942 235.47223 350.3282 M 235.52739 386.8516 C 238.14684 410.52725 237.33325 407.4051 249.84831 437.03568 C 254.20053 447.33997 233.59195 456.04443 229.23973 445.74014 C 216.72467 416.10956 215.91109 412.9874 213.29164 389.31174 C 212.06157 378.19385 234.29732 375.7337 235.52739 386.8516 M 249.84831 437.03568 C 262.36337 466.66626 261.24258 464.6323 279.27304 490.56052 C 285.65924 499.74402 267.29224 512.5164 260.90604 503.33292 C 242.87558 477.4047 241.75479 475.37073 229.23973 445.74014 C 224.88751 435.43585 245.4961 426.73138 249.84831 437.03568 M 279.27304 490.56052 C 297.3035 516.4888 296.47253 515.4348 311.83978 532.6866 C 319.2799 541.0391 302.57483 555.9194 295.1347 547.56683 C 279.76746 530.31506 278.9365 529.2611 260.90604 503.33292 C 254.51984 494.1494 272.88684 481.377 279.27304 490.56052 M 311.83978 532.6866 C 327.20703 549.9383 326.90842 549.616 339.58313 562.7668 C 347.34552 570.8207 331.23767 586.34546 323.47528 578.29156 C 310.80057 565.1408 310.50195 564.81854 295.1347 547.56683 C 287.69458 539.2143 304.39966 524.33405 311.83978 532.6866" scribmaster:penstyle="draw" style="fill:#000000;fill-opacity:1.0" /><path transform="matrix(1,0,0,1,0,0)" d="M 835.1 457.0 C 787.8949 485.47064 785.3673 481.28876 808.91986 467.05344 C 813.10175 464.52588 818.1569 472.88965 813.97504 475.4172 C 790.4225 489.65253 787.8949 485.47064 835.1 457.0 C 835.1 457.0 835.1 457.0 835.1 457.0 M 808.91986 467.05344 C 832.4724 452.8181 837.5236 461.18427 813.9211 475.4196 C 809.7368 477.94324 804.6896 469.5747 808.87384 467.05106 C 832.4764 452.81573 837.5276 461.1819 813.97504 475.4172 C 809.79315 477.94476 804.738 469.581 808.91986 467.05344 M 813.9211 475.4196 C 790.31854 489.6549 792.1354 494.9106 763.8855 507.89975 C 754.44556 512.2402 745.76465 493.36026 755.2046 489.0198 C 783.45447 476.03067 785.2713 481.28638 808.87384 467.05106 C 813.0581 464.5274 818.10535 472.89594 813.9211 475.4196 M 763.8855 507.89975 C 735.6356 520.8889 735.2729 521.7959 689.2756 539.47876 C 678.9286 543.4565 670.97314 522.7625 681.3201 518.7848 C 727.31744 501.102 726.9547 502.00897 755.2046 489.0198 C 764.64453 484.67935 773.32544 503.5593 763.8855 507.89975 M 689.2756 539.47876 C 643.27826 557.1616 642.81903 557.4192 583.44147 577.11993 C 572.8369 580.6384 565.7999 559.4293 576.4045 555.9108 C 635.78204 536.2101 635.3228 536.46765 681.3201 518.7848 C 691.6671 514.80707 699.62256 535.50104 689.2756 539.47876 M 583.44147 577.11993 C 524.06396 596.8206 523.79675 596.9172 470.8005 613.01886 C 460.0994 616.27014 453.59683 594.8679 464.29794 591.61664 C 517.2942 575.51495 517.027 575.6115 576.4045 555.9108 C 587.00903 552.39233 594.046 573.60144 583.44147 577.11993 M 470.8005 613.01886 C 417.80426 629.1206 417.2183 629.28284 385.42294 637.08386 C 374.55963 639.7492 369.229 618.0225 380.09232 615.3572 C 411.88766 607.55615 411.3017 607.7184 464.29794 591.61664 C 474.99905 588.36536 481.50162 609.7676 470.8005 613.01886 M 385.42294 637.08386 C 353.62756 644.8849 352.6764 645.07513 332.2034 648.25 C 321.14984 649.9641 317.72156 627.85693 328.77512 626.1428 C 349.2481 622.96796 348.29694 623.1582 380.09232 615.3572 C 390.95563 612.69183 396.28625 634.4185 385.42294 637.08386 M 332.2034 648.25 C 311.73044 651.4248 310.9191 651.52045 297.51724 652.60565 C 286.368 653.5084 284.5624 631.20996 295.71164 630.3072 C 309.1135 629.222 308.30215 629.3176 328.77512 626.1428 C 339.82867 624.4287 343.25696 646.5359 332.2034 648.25 M 297.51724 652.60565 C 284.1154 653.6909 282.59415 653.71027 276.2264 653.35767 C 265.05783 652.73926 266.2947 630.4021 277.4633 631.0205 C 283.83102 631.3731 282.30978 631.39246 295.71164 630.3072 C 306.86087 629.4044 308.66647 651.7029 297.51724 652.60565 M 276.2264 653.35767 C 269.85867 653.00507 263.40646 650.50385 261.6679 649.0856 C 253.00052 642.0149 267.1418 624.6802 275.8092 631.75085 C 277.54776 633.1691 271.09555 630.6679 277.4633 631.0205 C 288.63187 631.6389 287.395 653.9761 276.2264 653.35767 M 261.6679 649.0856 C 259.92935 647.66736 257.62476 632.8988 260.06686 629.14624 C 266.16803 619.771 284.91852 631.97327 278.81735 641.3485 C 276.37524 645.1012 274.07065 630.33264 275.8092 631.75085 C 284.4766 638.82153 270.3353 656.15625 261.6679 649.0856 M 260.06686 629.14624 C 262.50897 625.39355 264.40582 623.17645 273.03534 615.4183 C 281.35364 607.9399 296.31042 624.5765 287.99213 632.0549 C 279.3626 639.81305 281.25946 637.59595 278.81735 641.3485 C 272.7162 650.72375 253.9657 638.5215 260.06686 629.14624 M 273.03534 615.4183 C 281.6649 607.66003 282.3437 607.09656 300.55338 593.1558 C 309.43515 586.35626 323.03433 604.1198 314.15256 610.9194 C 295.94287 624.8601 296.62167 624.29663 287.99213 632.0549 C 279.67383 639.53326 264.71704 622.89667 273.03534 615.4183 M 300.55338 593.1558 C 318.76303 579.21515 318.7401 579.2327 337.68268 564.65314 C 346.54684 557.8306 360.19186 575.559 351.3277 582.38153 C 332.38513 596.9611 332.3622 596.9787 314.15256 610.9194 C 305.27078 617.71893 291.6716 599.9554 300.55338 593.1558 M 337.68268 564.65314 C 356.62524 550.07355 356.16672 550.44617 369.36615 539.1284 C 377.85773 531.8474 392.4198 548.83057 383.92822 556.1116 C 370.7288 567.4293 370.27026 567.80194 351.3277 582.38153 C 342.46353 589.20404 328.8185 571.47565 337.68268 564.65314 M 369.36615 539.1284 C 382.56558 527.81067 382.0731 528.2591 393.1638 517.5402 C 401.20697 509.7667 416.75403 525.853 408.71085 533.6265 C 397.62015 544.3454 397.12766 544.7938 383.92822 556.1116 C 375.43665 563.3926 360.87457 546.4094 369.36615 539.1284 M 393.1638 517.5402 C 404.2545 506.82132 404.36227 506.71857 410.51035 500.93292 C 418.65628 493.26718 433.98776 509.55905 425.84183 517.2248 C 419.69376 523.01044 419.80154 522.90765 408.71085 533.6265 C 400.66766 541.4 385.1206 525.3137 393.1638 517.5402 M 410.51035 500.93292 C 416.65842 495.14728 430.83438 494.19724 435.85077 497.7876 C 444.94675 504.29782 431.9263 522.4898 422.83032 515.97955 C 417.81393 512.38916 431.9899 511.43915 425.84183 517.2248 C 417.6959 524.89056 402.3644 508.59866 410.51035 500.93292 M 435.85077 497.7876 C 440.86716 501.37796 443.64493 504.2407 463.90778 534.4339 C 470.14102 543.7219 451.56503 556.18835 445.3318 546.9003 C 425.06894 516.70715 427.8467 519.56995 422.83032 515.97955 C 413.73434 509.46933 426.7548 491.27737 435.85077 497.7876 M 463.90778 534.4339 C 484.17062 564.627 484.3383 564.8844 514.6922 612.9139 C 520.668 622.36957 501.7567 634.3212 495.78088 624.86554 C 465.42697 576.83606 465.59464 577.09344 445.3318 546.9003 C 439.09854 537.6123 457.67453 525.1459 463.90778 534.4339 M 514.6922 612.9139 C 545.04614 660.94336 544.9639 660.81525 590.45184 730.6689 C 596.5558 740.04236 577.80884 752.25024 571.7049 742.8768 C 526.217 673.02313 526.13477 672.895 495.78088 624.86554 C 489.80505 615.40985 508.71637 603.4582 514.6922 612.9139 M 590.45184 730.6689 C 635.9397 800.5225 635.88 800.4318 699.3138 895.80536 C 705.5084 905.11914 686.88086 917.5084 680.6862 908.19464 C 617.25244 812.8211 617.19275 812.7304 571.7049 742.8768 C 565.60095 733.5033 584.3479 721.2954 590.45184 730.6689" scribmaster:penstyle="draw" style="fill:#000000;fill-opacity:1.0" /><path transform="matrix(1,0,0,1,0,0)" d="M 487.1 789.0 C 491.89236 808.66345 487.15054 809.84326 484.70435 800.01154 C 483.52454 795.2697 493.00818 792.9101 494.188 797.6519 C 496.6342 807.48364 491.89236 808.66345 487.1 789.0 C 487.1 789.0 487.1 789.0 487.1 789.0 M 484.70435 800.01154 C 482.25818 790.1798 491.74744 787.84296 494.14362 797.6747 C 495.30066 802.4221 485.8058 804.7362 484.64874 799.9888 C 482.25256 790.15704 491.74182 787.8202 494.188 797.6519 C 495.3678 802.39374 485.88416 804.75336 484.70435 800.01154 M 494.14362 797.6747 C 496.5398 807.5064 500.8228 803.525 508.6434 817.2693 C 513.7818 826.29974 495.7209 836.5766 490.5825 827.54614 C 482.7619 813.8019 487.04492 809.8205 484.64874 799.9888 C 483.4917 795.24133 492.98657 792.92725 494.14362 797.6747 M 508.6434 817.2693 C 516.464 831.01355 516.4586 829.7154 527.1252 844.6716 C 533.56177 853.69666 515.5116 866.5698 509.075 857.54474 C 498.40845 842.58856 498.40308 841.2904 490.5825 827.54614 C 485.4441 818.5157 503.505 808.23883 508.6434 817.2693 M 527.1252 844.6716 C 537.7918 859.6278 536.2897 857.8035 547.6285 868.1295 C 555.88934 875.65247 540.84344 892.1742 532.5826 884.65125 C 521.2438 874.32526 519.74164 872.501 509.075 857.54474 C 502.63843 848.51965 520.6886 835.6465 527.1252 844.6716 M 547.6285 868.1295 C 558.9673 878.45557 557.3303 877.2065 569.2056 884.55646 C 578.7156 890.44244 566.9436 909.46234 557.43365 903.57635 C 545.55835 896.2264 543.9214 894.9773 532.5826 884.65125 C 524.3217 877.1283 539.3676 860.60657 547.6285 868.1295 M 569.2056 884.55646 C 581.08093 891.9065 578.905 890.86414 587.3469 893.8322 C 597.89923 897.5423 590.47906 918.6469 579.92676 914.9368 C 571.48486 911.96875 569.30896 910.9264 557.43365 903.57635 C 547.9237 897.69037 559.6957 878.6705 569.2056 884.55646 M 587.3469 893.8322 C 595.7888 896.80035 592.29596 896.1691 597.1011 896.26245 C 608.2846 896.4797 607.85016 918.84674 596.6666 918.6295 C 591.8615 918.5362 588.36865 917.90497 579.92676 914.9368 C 569.37445 911.22675 576.7946 890.12213 587.3469 893.8322 M 597.1011 896.26245 C 601.9062 896.3558 595.12555 898.4817 597.3536 896.8672 C 606.4112 890.3038 619.538 908.419 610.4804 914.9824 C 608.2524 916.5969 601.47174 918.72284 596.6666 918.6295 C 585.4831 918.4123 585.91754 896.0452 597.1011 896.26245 M 597.3536 896.8672 C 599.58154 895.2527 595.26483 901.7136 596.23047 897.6676 C 598.82715 886.7875 620.5874 891.98083 617.9907 902.86096 C 617.0251 906.907 612.7084 913.3679 610.4804 914.9824 C 601.4228 921.54584 588.29596 903.4306 597.3536 896.8672 M 596.23047 897.6676 C 597.19617 893.6216 596.94446 897.3146 596.2822 890.59033 C 595.1859 879.4585 617.4496 877.26587 618.5459 888.3977 C 619.2081 895.12195 618.9564 898.81494 617.9907 902.86096 C 615.39404 913.7411 593.6338 908.5477 596.23047 897.6676 M 596.2822 890.59033 C 595.61993 883.8661 596.23364 886.5762 592.8709 877.28406 C 589.0645 866.7659 610.10077 859.15314 613.90717 869.67126 C 617.2699 878.9634 617.8836 881.67346 618.5459 888.3977 C 619.6422 899.52954 597.37854 901.72217 596.2822 890.59033 M 592.8709 877.28406 C 589.50824 867.99194 590.2643 869.6465 583.7678 858.0333 C 578.3069 848.27124 597.83105 837.34937 603.292 847.11145 C 609.78845 858.7246 610.5445 860.37915 613.90717 869.67126 C 617.71356 880.1894 596.6773 887.8022 592.8709 877.28406 M 583.7678 858.0333 C 577.27136 846.42017 578.17456 847.78864 569.15393 836.08734 C 562.3245 827.22845 580.0423 813.56964 586.8717 822.4285 C 595.89233 834.1298 596.79553 835.4983 603.292 847.11145 C 608.7529 856.87354 589.22876 867.7954 583.7678 858.0333 M 569.15393 836.08734 C 560.1333 824.38605 561.0843 825.4677 545.7932 810.1828 C 537.88214 802.2749 553.69794 786.45276 561.609 794.36066 C 576.9001 809.64557 577.8511 810.72723 586.8717 822.4285 C 593.7011 831.2874 575.98334 844.9462 569.15393 836.08734 M 545.7932 810.1828 C 530.50214 794.8979 530.977 795.34564 515.21136 781.32623 C 506.8525 773.8932 521.7186 757.17554 530.07745 764.6086 C 545.8431 778.628 546.31793 779.07574 561.609 794.36066 C 569.5201 802.26855 553.7043 818.0907 545.7932 810.1828 M 515.21136 781.32623 C 499.44577 767.30676 500.5827 768.1935 489.19345 760.43756 C 479.94794 754.1415 492.5401 735.6504 501.7856 741.9465 C 513.17487 749.7024 514.3118 750.5891 530.07745 764.6086 C 538.4363 772.0416 523.5702 788.7593 515.21136 781.32623 M 489.19345 760.43756 C 477.8042 752.6817 479.12955 753.4567 466.91412 747.3972 C 456.89355 742.42645 466.83502 722.3853 476.8556 727.3561 C 489.071 733.4156 490.39636 734.1906 501.7856 741.9465 C 511.03113 748.24255 498.43896 766.73364 489.19345 760.43756 M 466.91412 747.3972 C 454.6987 741.3377 455.9702 741.8735 446.38525 738.51465 C 435.82892 734.8154 443.22736 713.70276 453.7837 717.402 C 463.36865 720.7608 464.64017 721.2966 476.8556 727.3561 C 486.87616 732.32684 476.9347 752.368 466.91412 747.3972 M 446.38525 738.51465 C 436.8003 735.1558 439.1335 735.7015 432.63376 734.90173 C 421.53177 733.5357 424.26376 711.3317 435.36575 712.69775 C 441.8655 713.4975 444.19873 714.04315 453.7837 717.402 C 464.34003 721.1012 456.9416 742.21387 446.38525 738.51465 M 432.63376 734.90173 C 426.134 734.102 429.58496 733.9897 423.64813 735.116 C 412.65848 737.201 408.48856 715.2216 419.4782 713.13666 C 425.41504 712.0103 428.866 711.898 435.36575 712.69775 C 446.46774 714.0638 443.73575 736.26776 432.63376 734.90173 M 423.64813 735.116 C 417.7113 736.2424 421.9418 734.4849 416.88663 737.943 C 407.65436 744.2585 395.02344 725.794 404.2557 719.4785 C 409.31088 716.02045 413.54138 714.263 419.4782 713.13666 C 430.46786 711.0517 434.6378 733.03107 423.64813 735.116 M 416.88663 737.943 C 411.83145 741.40106 415.0574 738.0068 410.2399 745.88043 C 404.40198 755.4219 385.31915 743.746 391.15707 734.2045 C 395.97458 726.3309 399.20053 722.9366 404.2557 719.4785 C 413.48798 713.163 426.1189 731.6275 416.88663 737.943 M 410.2399 745.88043 C 405.4224 753.7541 406.74457 750.58124 403.29974 764.62317 C 400.63464 775.48676 378.90747 770.15656 381.57257 759.29297 C 385.0174 745.25104 386.33957 742.0782 391.15707 734.2045 C 396.995 724.6631 416.07782 736.339 410.2399 745.88043 M 403.29974 764.62317 C 399.85492 778.6651 400.1601 775.38464 401.19864 794.2346 C 401.814 805.4034 379.47647 806.6341 378.8611 795.46533 C 377.82257 776.61536 378.12775 773.3349 381.57257 759.29297 C 384.23767 748.4294 405.96484 753.7596 403.29974 764.62317 M 401.19864 794.2346 C 402.23718 813.08466 401.91635 810.9719 408.01807 835.23456 C 410.7462 846.0825 389.05032 851.5387 386.3222 840.69073 C 380.2205 816.4281 379.89966 814.31537 378.8611 795.46533 C 378.24576 784.2966 400.58328 783.06586 401.19864 794.2346 M 408.01807 835.23456 C 414.11978 859.4972 413.7528 858.3176 424.20248 886.3455 C 428.1101 896.8265 407.1482 904.6418 403.24057 894.1608 C 392.7909 866.13293 392.42392 864.95337 386.3222 840.69073 C 383.5941 829.8428 405.28995 824.3866 408.01807 835.23456 M 424.20248 886.3455 C 434.65216 914.3735 434.15198 913.23096 449.46667 943.4977 C 454.51685 953.47845 434.5553 963.5788 429.50513 953.598 C 414.19043 923.3313 413.69025 922.1888 403.24057 894.1608 C 399.33295 883.6799 420.29486 875.86456 424.20248 886.3455 M 449.46667 943.4977 C 464.78137 973.76434 464.2853 972.8849 488.3461 1011.37115 C 494.27573 1020.85583 475.3063 1032.7151 469.37668 1023.2304 C 445.3159 984.74414 444.81982 983.8647 429.50513 953.598 C 424.45496 943.61725 444.4165 933.5169 449.46667 943.4977 M 488.3461 1011.37115 C 512.4069 1049.8574 511.9946 1049.244 537.98914 1085.2871 C 544.5322 1094.3595 526.38745 1107.4457 519.84436 1098.3733 C 493.84982 1062.3302 493.4375 1061.7168 469.37668 1023.2304 C 463.44705 1013.7457 482.41647 1001.8865 488.3461 1011.37115 M 537.98914 1085.2871 C 563.98364 1121.3302 563.42523 1120.6184 584.63055 1145.5042 C 591.8854 1154.0181 574.8574 1168.5278 567.6026 1160.0139 C 546.3973 1135.1282 545.83887 1134.4164 519.84436 1098.3733 C 513.3013 1089.3009 531.44604 1076.2147 537.98914 1085.2871 M 584.63055 1145.5042 C 605.8358 1170.3899 605.5333 1170.0493 626.2115 1192.4045 C 633.80695 1200.6161 617.384 1215.807 609.7885 1207.5955 C 589.11035 1185.2402 588.80786 1184.8997 567.6026 1160.0139 C 560.3478 1151.5 577.37573 1136.9902 584.63055 1145.5042" scribmaster:penstyle="draw" style="fill:#000000;fill-opacity:1.0" /><path transform="matrix(1,0,0,1,0,0)" d="M 691.1 1066.0 C 566.02893 1095.6904 564.8995 1090.9364 627.385 1076.0912 C 632.1391 1074.9617 634.398 1084.4697 629.6439 1085.5992 C 567.1584 1100.4445 566.02893 1095.6904 691.1 1066.0 C 691.1 1066.0 691.1 1066.0 691.1 1066.0 M 627.385 1076.0912 C 689.87054 1061.246 692.1286 1070.7543 629.5931 1085.5995 C 624.8388 1086.7281 622.5816 1077.2196 627.3359 1076.091 C 689.8714 1061.2457 692.12946 1070.754 629.6439 1085.5992 C 624.88983 1086.7288 622.6309 1077.2207 627.385 1076.0912 M 629.5931 1085.5995 C 567.05756 1100.4447 567.33044 1105.9855 546.6194 1108.8049 C 536.32434 1110.2064 533.52136 1089.6163 543.8164 1088.2148 C 564.52747 1085.3954 564.80035 1090.9362 627.3359 1076.091 C 632.09015 1074.9623 634.34735 1084.4708 629.5931 1085.5995 M 546.6194 1108.8049 C 525.9083 1111.6244 524.94476 1112.4059 508.8813 1113.041 C 497.80475 1113.479 496.92883 1091.3259 508.00537 1090.888 C 524.0689 1090.2528 523.10535 1091.0343 543.8164 1088.2148 C 554.11145 1086.8134 556.9144 1107.4034 546.6194 1108.8049 M 508.8813 1113.041 C 492.81778 1113.6761 491.8114 1113.7582 477.1937 1113.0135 C 466.03516 1112.4452 467.172 1090.128 478.33054 1090.6964 C 492.94824 1091.441 491.94186 1091.5231 508.00537 1090.888 C 519.0819 1090.45 519.9578 1112.603 508.8813 1113.041 M 477.1937 1113.0135 C 462.576 1112.2688 461.2551 1112.1335 448.6336 1109.9703 C 437.61023 1108.081 441.38885 1086.0344 452.41223 1087.9237 C 465.03372 1090.0869 463.71283 1089.9517 478.33054 1090.6964 C 489.48907 1091.2648 488.35223 1113.5819 477.1937 1113.0135 M 448.6336 1109.9703 C 436.01212 1107.807 434.47107 1107.4302 422.84842 1103.6853 C 412.2019 1100.255 419.06262 1078.962 429.70914 1082.3923 C 441.3318 1086.1372 439.79074 1085.7604 452.41223 1087.9237 C 463.4356 1089.813 459.65698 1111.8596 448.6336 1109.9703 M 422.84842 1103.6853 C 411.22577 1099.9403 410.06287 1099.4929 401.97607 1095.851 C 391.77698 1091.2577 400.9635 1070.8595 411.1626 1075.4528 C 419.2494 1079.0947 418.0865 1078.6473 429.70914 1082.3923 C 440.35565 1085.8226 433.49493 1107.1156 422.84842 1103.6853 M 401.97607 1095.851 C 393.88928 1092.209 391.43658 1090.6975 388.14853 1088.0308 C 379.46097 1080.9847 393.5529 1063.6095 402.24045 1070.6555 C 405.5285 1073.3223 403.0758 1071.8108 411.1626 1075.4528 C 421.3617 1080.046 412.17517 1100.4442 401.97607 1095.851 M 388.14853 1088.0308 C 384.86047 1085.364 380.80887 1075.2754 381.1506 1072.5685 C 382.55164 1061.471 404.74677 1064.273 403.34573 1075.3705 C 403.004 1078.0774 398.9524 1067.9888 402.24045 1070.6555 C 410.928 1077.7015 396.8361 1095.0768 388.14853 1088.0308 M 381.1506 1072.5685 C 381.4923 1069.8617 386.45233 1061.9111 391.808 1058.3961 C 401.15952 1052.2585 413.4346 1070.9617 404.0831 1077.0992 C 398.72742 1080.6143 403.68744 1072.6637 403.34573 1075.3705 C 401.9447 1086.468 379.74957 1083.666 381.1506 1072.5685 M 391.808 1058.3961 C 397.1637 1054.8811 399.59695 1053.6781 411.7259 1049.4213 C 422.28043 1045.717 429.689 1066.8262 419.13446 1070.5304 C 407.00552 1074.7872 409.43878 1073.5842 404.0831 1077.0992 C 394.7316 1083.2368 382.4565 1064.5337 391.808 1058.3961 M 411.7259 1049.4213 C 423.85486 1045.1644 425.50385 1044.7238 444.14816 1041.2386 C 455.14343 1039.1833 459.25403 1061.1738 448.25876 1063.2291 C 429.61444 1066.7142 431.26343 1066.2736 419.13446 1070.5304 C 408.57993 1074.2346 401.17136 1053.1255 411.7259 1049.4213 M 444.14816 1041.2386 C 462.79248 1037.7537 463.93713 1037.6003 480.76324 1036.226 C 491.91183 1035.3153 493.73312 1057.6124 482.58453 1058.5231 C 465.75842 1059.8975 466.90308 1059.7441 448.25876 1063.2291 C 437.2635 1065.2844 433.1529 1043.294 444.14816 1041.2386 M 480.76324 1036.226 C 497.58936 1034.8514 499.29816 1034.8428 511.54816 1035.7191 C 522.7054 1036.5173 521.1091 1058.8318 509.95184 1058.0336 C 497.70184 1057.1572 499.41064 1057.1486 482.58453 1058.5231 C 471.43594 1059.4337 469.61465 1037.1366 480.76324 1036.226 M 511.54816 1035.7191 C 523.79816 1036.5955 525.3864 1036.8245 537.19696 1039.4036 C 548.1251 1041.79 543.3523 1063.6465 532.42413 1061.26 C 520.6136 1058.6809 522.20184 1058.9099 509.95184 1058.0336 C 498.79465 1057.2354 500.39096 1034.9209 511.54816 1035.7191 M 537.19696 1039.4036 C 549.0075 1041.9827 550.6685 1042.4832 561.0814 1046.5248 C 571.5092 1050.5721 563.41437 1071.4276 552.9866 1067.3802 C 542.57367 1063.3386 544.2347 1063.8391 532.42413 1061.26 C 521.496 1058.8735 526.2688 1037.0171 537.19696 1039.4036 M 561.0814 1046.5248 C 571.4943 1050.5664 573.66797 1051.698 582.4096 1057.548 C 591.70575 1063.769 579.2636 1082.3613 569.96747 1076.1403 C 561.2258 1070.2903 563.3995 1071.4219 552.9866 1067.3802 C 542.5588 1063.3329 550.6536 1042.4774 561.0814 1046.5248 M 582.4096 1057.548 C 591.15125 1063.398 592.7154 1064.6622 601.43536 1073.1144 C 609.4672 1080.8995 593.8968 1096.9633 585.8649 1089.1781 C 577.14496 1080.726 578.7091 1081.9902 569.96747 1076.1403 C 560.6713 1069.9192 573.11346 1051.3269 582.4096 1057.548 M 601.43536 1073.1144 C 610.15533 1081.5664 611.0708 1082.5685 621.1232 1095.0103 C 628.153 1103.7109 610.75165 1117.7705 603.72186 1109.0698 C 593.66943 1096.628 594.5849 1097.6301 585.8649 1089.1781 C 577.83307 1081.393 593.4035 1065.3292 601.43536 1073.1144 M 621.1232 1095.0103 C 631.17566 1107.4521 631.8597 1108.3953 644.71185 1128.2114 C 650.7985 1137.5962 632.0291 1149.7695 625.94244 1140.3848 C 613.0903 1120.5686 613.7743 1121.5117 603.72186 1109.0698 C 596.6921 1100.3691 614.09344 1086.3096 621.1232 1095.0103 M 644.71185 1128.2114 C 657.564 1148.0275 657.9297 1148.6322 679.72327 1187.3953 C 685.20514 1197.1456 665.7044 1208.1095 660.22253 1198.3591 C 638.42896 1159.5961 638.7946 1160.2008 625.94244 1140.3848 C 619.8558 1131.0 638.6252 1118.8267 644.71185 1128.2114 M 679.72327 1187.3953 C 701.51685 1226.1584 701.52997 1226.1819 726.43463 1270.7285 C 731.89307 1280.492 712.3661 1291.4089 706.90765 1281.6455 C 682.003 1237.0989 682.0161 1237.1223 660.22253 1198.3591 C 654.74066 1188.6088 674.2414 1177.6449 679.72327 1187.3953 M 726.43463 1270.7285 C 751.3393 1315.2751 751.3725 1315.335 769.95245 1349.0513 C 775.3511 1358.8479 755.7577 1369.6453 750.3591 1359.8486 C 731.7791 1326.1323 731.8123 1326.1921 706.90765 1281.6455 C 701.4492 1271.8821 720.9762 1260.9651 726.43463 1270.7285 M 769.95245 1349.0513 C 788.5324 1382.7676 788.4862 1382.6846 803.0538 1408.5967 C 808.5354 1418.3472 789.0344 1429.3105 783.5528 1419.56 C 768.9852 1393.648 768.939 1393.565 750.3591 1359.8486 C 744.96045 1350.052 764.55383 1339.2546 769.95245 1349.0513 M 803.0538 1408.5967 C 817.62134 1434.5089 817.3376 1434.0323 830.29614 1454.6215 C 836.2544 1464.0883 817.3209 1476.0048 811.3627 1466.538 C 798.4041 1445.9489 798.12036 1445.4723 783.5528 1419.56 C 778.07117 1409.8096 797.57214 1398.8462 803.0538 1408.5967" scribmaster:penstyle="draw" style="fill:#000000;fill-opacity:1.0" /><path transform="matrix(1,0,0,1,0,0)" d="M 25.1 274.0 C 54.08925 376.78418 49.387524 378.11484 34.8429 326.72275 C 33.51225 322.02103 42.9157 319.3597 44.24635 324.06143 C 58.790974 375.45352 54.08925 376.78418 25.1 274.0 C 25.1 274.0 25.1 274.0 25.1 274.0 M 34.8429 326.72275 C 20.298275 275.33066 29.702923 272.67358 44.197548 324.06567 C 45.52396 328.7686 36.118114 331.42142 34.791702 326.7185 C 20.297077 275.32642 29.701725 272.66934 44.24635 324.06143 C 45.577 328.76315 36.17355 331.42447 34.8429 326.72275 M 44.197548 324.06567 C 58.692173 375.45776 63.997993 373.99536 78.06322 424.47388 C 80.852036 434.4826 60.834545 440.06024 58.04573 430.0515 C 43.980507 379.573 49.286327 378.1106 34.791702 326.7185 C 33.46529 322.0156 42.871136 319.36276 44.197548 324.06567 M 78.06322 424.47388 C 92.12844 474.9524 92.58743 474.09314 106.86146 515.0509 C 110.50952 525.5186 89.57405 532.81476 85.92599 522.34705 C 71.65196 481.38928 72.110954 480.53003 58.04573 430.0515 C 55.256916 420.0428 75.2744 414.46515 78.06322 424.47388 M 106.86146 515.0509 C 121.13548 556.0087 121.14156 555.76636 143.47618 615.8952 C 147.36664 626.369 126.41901 634.1499 122.52855 623.6761 C 100.19393 563.54724 100.20001 563.3049 85.92599 522.34705 C 82.27792 511.8793 103.213394 504.58316 106.86146 515.0509 M 143.47618 615.8952 C 165.8108 676.0241 165.87935 676.1805 188.44267 739.8836 C 192.17673 750.42596 171.09201 757.8941 167.35796 747.35175 C 144.79463 683.6486 144.86317 683.805 122.52855 623.6761 C 118.63809 613.2023 139.58572 605.4214 143.47618 615.8952 M 188.44267 739.8836 C 211.006 803.5868 211.01517 803.6086 229.06262 854.9053 C 232.77492 865.4568 211.67189 872.88135 207.9596 862.32983 C 189.91211 811.03314 189.92128 811.05493 167.35796 747.35175 C 163.6239 736.8094 184.70862 729.34125 188.44267 739.8836 M 229.06262 854.9053 C 247.1101 906.202 247.09322 906.1539 266.76517 961.2634 C 270.52563 971.7981 249.45634 979.319 245.69589 968.7843 C 226.02394 913.67474 226.00705 913.6266 207.9596 862.32983 C 204.2473 851.7783 225.35033 844.35376 229.06262 854.9053 M 266.76517 961.2634 C 286.43713 1016.373 286.4411 1016.384 314.9828 1096.6068 C 318.7322 1107.1454 297.655 1114.6442 293.90558 1104.1056 C 265.3639 1023.8829 265.36786 1023.89386 245.69589 968.7843 C 241.93544 958.24963 263.0047 950.72876 266.76517 961.2634 M 314.9828 1096.6068 C 343.52448 1176.8297 343.5508 1176.9045 372.32434 1259.6343 C 375.99884 1270.1992 354.86896 1277.5483 351.19446 1266.9834 C 322.42093 1184.2537 322.44727 1184.3285 293.90558 1104.1056 C 290.15616 1093.567 311.23337 1086.0682 314.9828 1096.6068 M 372.32434 1259.6343 C 401.09784 1342.3641 401.12817 1342.4525 421.3638 1402.2383 C 424.94998 1412.8335 403.75943 1420.0059 400.17325 1409.4106 C 379.93762 1349.6249 379.96796 1349.7133 351.19446 1266.9834 C 347.51996 1256.4185 368.64984 1249.0693 372.32434 1259.6343 M 421.3638 1402.2383 C 441.59943 1462.0242 441.46484 1461.6488 461.85318 1515.4854 C 465.81473 1525.946 444.89334 1533.8691 440.9318 1523.4084 C 420.54346 1469.5719 420.40887 1469.1965 400.17325 1409.4106 C 396.58707 1398.8154 417.77762 1391.6431 421.3638 1402.2383 M 461.85318 1515.4854 C 482.24152 1569.3219 482.12933 1569.0375 503.3485 1620.754 C 507.59448 1631.1025 486.89746 1639.5945 482.6515 1629.246 C 461.4323 1577.5294 461.32013 1577.245 440.9318 1523.4084 C 436.97025 1512.9478 457.89163 1505.0247 461.85318 1515.4854" scribmaster:penstyle="draw" style="fill:#000000;fill-opacity:1.0" /></g></g></svg>
